# xmcd CD database file
#
# Track frame offsets:
#	150
#	12964
#	24031
#	40488
#	50186
#	62813
#	75101
#	86188
#	96857
#	109185
#	121226
#	131874
#
# Disc length: 1923 seconds
#
# Revision: 0
# Processed by: cddbd v1.5.2PL0 Copyright (c) Steve Scherf et al.
# Submitted via: CDex 1.79
#
DISCID=9907810c
DTITLE=Janette and Joe Carter - Carter Family Favorites
DYEAR=2003
DGENRE=Country
TTITLE0=Curtains Of Night
TTITLE1=Will You Miss Me When I`m Gone
TTITLE2=I`m Going Home
TTITLE3=Lonesome Blues
TTITLE4=Farther On
TTITLE5=Kitty And I
TTITLE6=Anchored In Love
TTITLE7=Waltzing With You
TTITLE8=Higher Ground
TTITLE9=Let Old Jordan Roll
TTITLE10=Ramblin` Man
TTITLE11=Sweet Story Of Old
EXTD=YEAR: 2003
EXTT0=
EXTT1=
EXTT2=
EXTT3=
EXTT4=
EXTT5=
EXTT6=
EXTT7=
EXTT8=
EXTT9=
EXTT10=
EXTT11=
PLAYORDER=
